<svg width="1440" height="2616" viewBox="0 0 1440 2616" fill="none" xmlns="http://www.w3.org/2000/svg">
<rect y="1268" width="1440" height="1348" fill="#2A2A2B"/>
<g style="mix-blend-mode:lighten" filter="url(#filter0_f_0_1)">
<path d="M1173 720C1173 970.185 970.185 1173 720 1173C469.815 1173 267 970.185 267 720C267 469.815 469.815 267 720 267C970.185 267 1173 469.815 1173 720Z" fill="#6B61FF" fill-opacity="0.3"/>
</g>
<g opacity="0.12">
<line x1="238" y1="473.5" x2="1283" y2="473.5" stroke="white"/>
<line x1="122" y1="793.5" x2="1399" y2="793.5" stroke="white"/>
<line x1="122" y1="729.5" x2="1399" y2="729.5" stroke="white"/>
<line x1="122" y1="1049.5" x2="1399" y2="1049.5" stroke="white"/>
<line x1="238" y1="409.5" x2="1283" y2="409.5" stroke="white"/>
<line x1="238" y1="665.5" x2="1283" y2="665.5" stroke="white"/>
<line x1="122" y1="985.5" x2="1399" y2="985.5" stroke="white"/>
<line x1="122" y1="345.5" x2="1399" y2="345.5" stroke="white"/>
<line x1="238" y1="601.5" x2="1283" y2="601.5" stroke="white"/>
<line x1="122" y1="921.5" x2="1399" y2="921.5" stroke="white"/>
<line x1="238" y1="537.5" x2="1283" y2="537.5" stroke="white"/>
<line x1="122" y1="857.5" x2="1399" y2="857.5" stroke="white"/>
<line x1="41" y1="249.5" x2="1481" y2="249.5" stroke="white"/>
<line x1="41" y1="81.5001" x2="1481" y2="81.5003" stroke="white"/>
<line x1="41" y1="1.5" x2="1481" y2="1.50013" stroke="white"/>
</g>
<g opacity="0.12">
<line x1="79.5001" y1="1012" x2="79.5001" y2="81" stroke="white"/>
<line x1="659.5" y1="794" x2="659.5" y2="537" stroke="white"/>
<line x1="1007.5" y1="794" x2="1007.5" y2="537" stroke="white"/>
<line x1="427.5" y1="794" x2="427.5" y2="537" stroke="white"/>
<line x1="1355.5" y1="1012" x2="1355.5" y2="81" stroke="white"/>
<line x1="311.5" y1="922" x2="311.5" y2="411" stroke="white"/>
<line x1="1239.5" y1="1012" x2="1239.5" y2="249" stroke="white"/>
<line x1="195.5" y1="1012" x2="195.5" y2="249" stroke="white"/>
<line x1="775.5" y1="794" x2="775.5" y2="537" stroke="white"/>
<line x1="1123.5" y1="922" x2="1123.5" y2="411" stroke="white"/>
</g>
<g opacity="0.12">
<g clip-path="url(#clip0_0_1)">
<mask id="path-28-inside-1_0_1" fill="white">
<path d="M1398 345H1517V730H1398V345Z"/>
</mask>
<line x1="1337.65" y1="390.124" x2="1533.13" y2="298.97" stroke="white"/>
<line x1="1337.65" y1="621.512" x2="1533.13" y2="530.359" stroke="white"/>
<line x1="1337.65" y1="505.818" x2="1533.13" y2="414.665" stroke="white"/>
<line x1="1337.65" y1="737.207" x2="1533.13" y2="646.053" stroke="white"/>
<line x1="1337.65" y1="406.651" x2="1533.13" y2="315.498" stroke="white"/>
<line x1="1337.65" y1="638.04" x2="1533.13" y2="546.887" stroke="white"/>
<line x1="1337.65" y1="522.346" x2="1533.13" y2="431.192" stroke="white"/>
<line x1="1337.65" y1="753.735" x2="1533.13" y2="662.581" stroke="white"/>
<line x1="1337.65" y1="423.179" x2="1533.13" y2="332.026" stroke="white"/>
<line x1="1337.65" y1="654.568" x2="1533.13" y2="563.414" stroke="white"/>
<line x1="1337.65" y1="538.874" x2="1533.13" y2="447.72" stroke="white"/>
<line x1="1337.65" y1="770.262" x2="1533.13" y2="679.109" stroke="white"/>
<line x1="1337.65" y1="439.707" x2="1533.13" y2="348.553" stroke="white"/>
<line x1="1337.65" y1="671.096" x2="1533.13" y2="579.942" stroke="white"/>
<line x1="1337.65" y1="555.401" x2="1533.13" y2="464.248" stroke="white"/>
<line x1="1337.65" y1="786.79" x2="1533.13" y2="695.637" stroke="white"/>
<line x1="1337.65" y1="456.235" x2="1533.13" y2="365.081" stroke="white"/>
<line x1="1337.65" y1="687.624" x2="1533.13" y2="596.47" stroke="white"/>
<line x1="1337.65" y1="571.929" x2="1533.13" y2="480.776" stroke="white"/>
<line x1="1337.65" y1="803.318" x2="1533.13" y2="712.164" stroke="white"/>
<line x1="1337.65" y1="472.763" x2="1533.13" y2="381.609" stroke="white"/>
<line x1="1337.65" y1="704.151" x2="1533.13" y2="612.998" stroke="white"/>
<line x1="1337.65" y1="588.457" x2="1533.13" y2="497.303" stroke="white"/>
<line x1="1337.65" y1="819.846" x2="1533.13" y2="728.692" stroke="white"/>
<line x1="1337.65" y1="489.29" x2="1533.13" y2="398.137" stroke="white"/>
<line x1="1337.65" y1="720.679" x2="1533.13" y2="629.526" stroke="white"/>
<line x1="1337.65" y1="604.985" x2="1533.13" y2="513.831" stroke="white"/>
</g>
<path d="M1398 346H1517V344H1398V346ZM1517 729H1398V731H1517V729Z" fill="white" mask="url(#path-28-inside-1_0_1)"/>
</g>
<g opacity="0.12">
<g clip-path="url(#clip1_0_1)">
<mask id="path-57-inside-2_0_1" fill="white">
<path d="M4 345H123V730H4V345Z"/>
</mask>
<line x1="-56.3501" y1="390.124" x2="139.129" y2="298.97" stroke="white"/>
<line x1="-56.3501" y1="621.512" x2="139.129" y2="530.359" stroke="white"/>
<line x1="-56.3501" y1="505.818" x2="139.129" y2="414.665" stroke="white"/>
<line x1="-56.3501" y1="737.207" x2="139.129" y2="646.053" stroke="white"/>
<line x1="-56.3501" y1="406.651" x2="139.129" y2="315.498" stroke="white"/>
<line x1="-56.3501" y1="638.04" x2="139.129" y2="546.887" stroke="white"/>
<line x1="-56.3501" y1="522.346" x2="139.129" y2="431.192" stroke="white"/>
<line x1="-56.3501" y1="753.735" x2="139.129" y2="662.581" stroke="white"/>
<line x1="-56.3501" y1="423.179" x2="139.129" y2="332.026" stroke="white"/>
<line x1="-56.3501" y1="654.568" x2="139.129" y2="563.414" stroke="white"/>
<line x1="-56.3501" y1="538.874" x2="139.129" y2="447.72" stroke="white"/>
<line x1="-56.3501" y1="770.262" x2="139.129" y2="679.109" stroke="white"/>
<line x1="-56.3501" y1="439.707" x2="139.129" y2="348.553" stroke="white"/>
<line x1="-56.3501" y1="671.096" x2="139.129" y2="579.942" stroke="white"/>
<line x1="-56.3501" y1="555.401" x2="139.129" y2="464.248" stroke="white"/>
<line x1="-56.3501" y1="786.79" x2="139.129" y2="695.637" stroke="white"/>
<line x1="-56.3501" y1="456.235" x2="139.129" y2="365.081" stroke="white"/>
<line x1="-56.3501" y1="687.624" x2="139.129" y2="596.47" stroke="white"/>
<line x1="-56.3501" y1="571.929" x2="139.129" y2="480.776" stroke="white"/>
<line x1="-56.3501" y1="803.318" x2="139.129" y2="712.164" stroke="white"/>
<line x1="-56.3501" y1="472.763" x2="139.129" y2="381.609" stroke="white"/>
<line x1="-56.3501" y1="704.151" x2="139.129" y2="612.998" stroke="white"/>
<line x1="-56.3501" y1="588.457" x2="139.129" y2="497.303" stroke="white"/>
<line x1="-56.3501" y1="819.846" x2="139.129" y2="728.692" stroke="white"/>
<line x1="-56.3501" y1="489.29" x2="139.129" y2="398.137" stroke="white"/>
<line x1="-56.3501" y1="720.679" x2="139.129" y2="629.526" stroke="white"/>
<line x1="-56.3501" y1="604.985" x2="139.129" y2="513.831" stroke="white"/>
</g>
<path d="M4 346H123V344H4V346ZM123 729H4V731H123V729Z" fill="white" mask="url(#path-57-inside-2_0_1)"/>
</g>
<g opacity="0.1">
<g opacity="0.23" filter="url(#filter1_f_0_1)">
<path d="M290.867 718.21C245.534 658.539 75.4828 794.814 75.4828 794.814C64.8818 814.516 52.7137 856.084 88.8499 864.742C240.474 901.072 211.435 1044.77 373.125 960.657C373.125 960.657 574.487 792.976 484.176 766.956C427.795 750.711 386.46 831.967 337.519 799.601C306.96 779.392 336.201 777.88 290.867 718.21Z" fill="#92F879" fill-opacity="0.37"/>
</g>
<g opacity="0.23" filter="url(#filter2_f_0_1)">
<path d="M1120.49 618.033C1118.64 702.226 1363.53 701.248 1363.53 701.248C1386.63 691.329 1426.4 663.269 1400.67 630.384C1292.68 492.403 1418.7 386.299 1217.65 347.231C1217.65 347.231 923.261 353.943 984.514 439.982C1022.76 493.697 1115.94 451.117 1136.36 513.812C1149.11 552.957 1122.33 533.841 1120.49 618.033Z" fill="#D7F879" fill-opacity="0.8"/>
</g>
</g>
<defs>
<filter id="filter0_f_0_1" x="-467" y="-467" width="2374" height="2374" filterUnits="userSpaceOnUse" color-interpolation-filters="sRGB">
<feFlood flood-opacity="0" result="BackgroundImageFix"/>
<feBlend mode="normal" in="SourceGraphic" in2="BackgroundImageFix" result="shape"/>
<feGaussianBlur stdDeviation="367" result="effect1_foregroundBlur_0_1"/>
</filter>
<filter id="filter1_f_0_1" x="-92.663" y="545.796" width="757.438" height="598.165" filterUnits="userSpaceOnUse" color-interpolation-filters="sRGB">
<feFlood flood-opacity="0" result="BackgroundImageFix"/>
<feBlend mode="normal" in="SourceGraphic" in2="BackgroundImageFix" result="shape"/>
<feGaussianBlur stdDeviation="78.65" result="effect1_foregroundBlur_0_1"/>
</filter>
<filter id="filter2_f_0_1" x="818.829" y="189.931" width="747.499" height="668.618" filterUnits="userSpaceOnUse" color-interpolation-filters="sRGB">
<feFlood flood-opacity="0" result="BackgroundImageFix"/>
<feBlend mode="normal" in="SourceGraphic" in2="BackgroundImageFix" result="shape"/>
<feGaussianBlur stdDeviation="78.65" result="effect1_foregroundBlur_0_1"/>
</filter>
<clipPath id="clip0_0_1">
<path d="M1398 345H1517V730H1398V345Z" fill="white"/>
</clipPath>
<clipPath id="clip1_0_1">
<path d="M4 345H123V730H4V345Z" fill="white"/>
</clipPath>
</defs>
</svg>
