<svg width="101" height="72" viewBox="0 0 101 72" fill="none" xmlns="http://www.w3.org/2000/svg">
<path d="M99.6176 22.6853C99.3151 21.5858 98.9326 20.5219 98.4749 19.4953L98.0182 19.6989C97.1219 17.6889 95.9303 15.8246 94.4797 14.1177L94.8607 13.7939C93.4386 12.1206 91.7751 10.5988 89.9049 9.23791L89.6107 9.6422C87.8813 8.3838 85.9691 7.26281 83.9008 6.28778L84.114 5.83551C82.1546 4.91182 80.0591 4.11859 77.85 3.46222L77.7076 3.94151C75.6493 3.32996 73.4894 2.83783 71.2459 2.47095L71.3265 1.97751C69.1808 1.62662 66.9606 1.38949 64.6813 1.27089L64.6553 1.77021C62.4956 1.65783 60.2816 1.65266 58.0268 1.75903L58.0032 1.25959C55.8207 1.36255 53.6007 1.56926 51.3554 1.8835L51.4247 2.37867C49.2728 2.67983 47.097 3.08048 44.9081 3.58409L44.796 3.09682C43.7193 3.34451 42.6396 3.61695 41.5581 3.91451C40.4766 4.21208 39.4094 4.53031 38.3576 4.8682L38.5106 5.34424C36.3721 6.03123 34.2976 6.79997 32.2945 7.64198L32.1008 7.18105C30.0107 8.05962 27.9974 9.01762 26.0694 10.0456L26.3046 10.4868C24.3127 11.5488 22.413 12.6858 20.6147 13.8872L20.3369 13.4714C18.4392 14.7393 16.6527 16.0788 14.9884 17.4779L15.3102 17.8606C13.5701 19.3235 11.9659 20.8513 10.5101 22.4297L10.1426 22.0907C8.58019 23.7847 7.18538 25.5382 5.97423 27.3343L6.38878 27.6138C5.1103 29.5096 4.04067 31.451 3.19843 33.417L2.73884 33.2201C1.82801 35.3461 1.17711 37.5047 0.811122 39.6699L1.30413 39.7533C0.930784 41.962 0.860555 44.1735 1.11863 46.3591L0.622084 46.4177C0.753896 47.534 0.969464 48.6438 1.27198 49.7433C1.57449 50.8428 1.95697 51.9067 2.41473 52.9333L2.87139 52.7297C3.76766 54.7397 4.95925 56.604 6.40992 58.3109L6.02893 58.6347C7.45104 60.308 9.11453 61.8298 10.9847 63.1907L11.2789 62.7864C13.0083 64.0448 14.9204 65.1658 16.9888 66.1408L16.7756 66.5931C18.735 67.5168 20.8305 68.31 23.0396 68.9664L23.182 68.4871C25.2403 69.0986 27.4002 69.5908 29.6437 69.9577L29.563 70.4511C31.7087 70.802 33.929 71.0391 36.2083 71.1577L36.2342 70.6584C38.394 70.7708 40.608 70.7759 42.8628 70.6696L42.8864 71.169C45.0689 71.0661 47.2889 70.8594 49.5342 70.5451L49.4649 70.0499C51.6168 69.7488 53.7926 69.3481 55.9815 68.8445L56.0936 69.3318C57.1702 69.0841 58.25 68.8117 59.3315 68.5141C60.413 68.2165 61.4801 67.8983 62.5319 67.5604L62.379 67.0844C64.5175 66.3974 66.592 65.6286 68.5951 64.7866L68.7888 65.2476C70.8789 64.369 72.8922 63.411 74.8202 62.383L74.585 61.9418C76.5769 60.8798 78.4766 59.7428 80.2749 58.5414L80.5527 58.9572C82.4504 57.6893 84.2369 56.3498 85.9012 54.9507L85.5794 54.568C87.3195 53.1051 88.9237 51.5773 90.3794 49.999L90.747 50.3379C92.3094 48.6439 93.7042 46.8904 94.9154 45.0944L94.5008 44.8148C95.7793 42.919 96.8489 40.9776 97.6912 39.0117L98.1508 39.2085C99.0616 37.0825 99.7125 34.924 100.078 32.7587L99.5855 32.6754C99.9588 30.4666 100.029 28.2551 99.771 26.0695L100.268 26.0109C100.136 24.8946 99.9201 23.7848 99.6176 22.6853Z" stroke="#ADFFE4" stroke-linejoin="round" stroke-dasharray="7 7"/>
</svg>
