<svg width="1440" height="1461" viewBox="0 0 1440 1461" fill="none" xmlns="http://www.w3.org/2000/svg">
<g opacity="0.12">
<line x1="238" y1="472.5" x2="1283" y2="472.5" stroke="white"/>
<line x1="122" y1="792.5" x2="1399" y2="792.5" stroke="white"/>
<line x1="122" y1="728.5" x2="1399" y2="728.5" stroke="white"/>
<line x1="122" y1="1048.5" x2="1399" y2="1048.5" stroke="white"/>
<line x1="238" y1="408.5" x2="1283" y2="408.5" stroke="white"/>
<line x1="238" y1="664.5" x2="1283" y2="664.5" stroke="white"/>
<line x1="122" y1="984.5" x2="1399" y2="984.5" stroke="white"/>
<line x1="122" y1="344.5" x2="1399" y2="344.5" stroke="white"/>
<line x1="238" y1="600.5" x2="1283" y2="600.5" stroke="white"/>
<line x1="122" y1="920.5" x2="1399" y2="920.5" stroke="white"/>
<line x1="238" y1="536.5" x2="1283" y2="536.5" stroke="white"/>
<line x1="122" y1="856.5" x2="1399" y2="856.5" stroke="white"/>
<line x1="41" y1="248.5" x2="1481" y2="248.5" stroke="white"/>
<line x1="41" y1="80.5001" x2="1481" y2="80.5003" stroke="white"/>
<line x1="41" y1="0.5" x2="1481" y2="0.500126" stroke="white"/>
</g>
<g opacity="0.12">
<line x1="79.5001" y1="1011" x2="79.5001" y2="80" stroke="white"/>
<line x1="659.5" y1="793" x2="659.5" y2="536" stroke="white"/>
<line x1="1007.5" y1="793" x2="1007.5" y2="536" stroke="white"/>
<line x1="427.5" y1="793" x2="427.5" y2="536" stroke="white"/>
<line x1="1355.5" y1="1011" x2="1355.5" y2="80" stroke="white"/>
<line x1="311.5" y1="921" x2="311.5" y2="410" stroke="white"/>
<line x1="1239.5" y1="1011" x2="1239.5" y2="248" stroke="white"/>
<line x1="195.5" y1="1011" x2="195.5" y2="248" stroke="white"/>
<line x1="775.5" y1="793" x2="775.5" y2="536" stroke="white"/>
<line x1="1123.5" y1="921" x2="1123.5" y2="410" stroke="white"/>
</g>
<g opacity="0.12">
<g clip-path="url(#clip0_1_5320)">
<mask id="path-26-inside-1_1_5320" fill="white">
<path d="M1398 344H1517V729H1398V344Z"/>
</mask>
<line x1="1337.65" y1="389.124" x2="1533.13" y2="297.97" stroke="white"/>
<line x1="1337.65" y1="620.512" x2="1533.13" y2="529.359" stroke="white"/>
<line x1="1337.65" y1="504.818" x2="1533.13" y2="413.665" stroke="white"/>
<line x1="1337.65" y1="736.207" x2="1533.13" y2="645.053" stroke="white"/>
<line x1="1337.65" y1="405.651" x2="1533.13" y2="314.498" stroke="white"/>
<line x1="1337.65" y1="637.04" x2="1533.13" y2="545.887" stroke="white"/>
<line x1="1337.65" y1="521.346" x2="1533.13" y2="430.192" stroke="white"/>
<line x1="1337.65" y1="752.735" x2="1533.13" y2="661.581" stroke="white"/>
<line x1="1337.65" y1="422.179" x2="1533.13" y2="331.026" stroke="white"/>
<line x1="1337.65" y1="653.568" x2="1533.13" y2="562.414" stroke="white"/>
<line x1="1337.65" y1="537.874" x2="1533.13" y2="446.72" stroke="white"/>
<line x1="1337.65" y1="769.262" x2="1533.13" y2="678.109" stroke="white"/>
<line x1="1337.65" y1="438.707" x2="1533.13" y2="347.553" stroke="white"/>
<line x1="1337.65" y1="670.096" x2="1533.13" y2="578.942" stroke="white"/>
<line x1="1337.65" y1="554.401" x2="1533.13" y2="463.248" stroke="white"/>
<line x1="1337.65" y1="785.79" x2="1533.13" y2="694.637" stroke="white"/>
<line x1="1337.65" y1="455.235" x2="1533.13" y2="364.081" stroke="white"/>
<line x1="1337.65" y1="686.624" x2="1533.13" y2="595.47" stroke="white"/>
<line x1="1337.65" y1="570.929" x2="1533.13" y2="479.776" stroke="white"/>
<line x1="1337.65" y1="802.318" x2="1533.13" y2="711.164" stroke="white"/>
<line x1="1337.65" y1="471.763" x2="1533.13" y2="380.609" stroke="white"/>
<line x1="1337.65" y1="703.151" x2="1533.13" y2="611.998" stroke="white"/>
<line x1="1337.65" y1="587.457" x2="1533.13" y2="496.303" stroke="white"/>
<line x1="1337.65" y1="818.846" x2="1533.13" y2="727.692" stroke="white"/>
<line x1="1337.65" y1="488.29" x2="1533.13" y2="397.137" stroke="white"/>
<line x1="1337.65" y1="719.679" x2="1533.13" y2="628.526" stroke="white"/>
<line x1="1337.65" y1="603.985" x2="1533.13" y2="512.831" stroke="white"/>
</g>
<path d="M1398 345H1517V343H1398V345ZM1517 728H1398V730H1517V728Z" fill="white" mask="url(#path-26-inside-1_1_5320)"/>
</g>
<g opacity="0.12">
<g clip-path="url(#clip1_1_5320)">
<mask id="path-55-inside-2_1_5320" fill="white">
<path d="M4 344H123V729H4V344Z"/>
</mask>
<line x1="-56.3501" y1="389.124" x2="139.129" y2="297.97" stroke="white"/>
<line x1="-56.3501" y1="620.512" x2="139.129" y2="529.359" stroke="white"/>
<line x1="-56.3501" y1="504.818" x2="139.129" y2="413.665" stroke="white"/>
<line x1="-56.3501" y1="736.207" x2="139.129" y2="645.053" stroke="white"/>
<line x1="-56.3501" y1="405.651" x2="139.129" y2="314.498" stroke="white"/>
<line x1="-56.3501" y1="637.04" x2="139.129" y2="545.887" stroke="white"/>
<line x1="-56.3501" y1="521.346" x2="139.129" y2="430.192" stroke="white"/>
<line x1="-56.3501" y1="752.735" x2="139.129" y2="661.581" stroke="white"/>
<line x1="-56.3501" y1="422.179" x2="139.129" y2="331.026" stroke="white"/>
<line x1="-56.3501" y1="653.568" x2="139.129" y2="562.414" stroke="white"/>
<line x1="-56.3501" y1="537.874" x2="139.129" y2="446.72" stroke="white"/>
<line x1="-56.3501" y1="769.262" x2="139.129" y2="678.109" stroke="white"/>
<line x1="-56.3501" y1="438.707" x2="139.129" y2="347.553" stroke="white"/>
<line x1="-56.3501" y1="670.096" x2="139.129" y2="578.942" stroke="white"/>
<line x1="-56.3501" y1="554.401" x2="139.129" y2="463.248" stroke="white"/>
<line x1="-56.3501" y1="785.79" x2="139.129" y2="694.637" stroke="white"/>
<line x1="-56.3501" y1="455.235" x2="139.129" y2="364.081" stroke="white"/>
<line x1="-56.3501" y1="686.624" x2="139.129" y2="595.47" stroke="white"/>
<line x1="-56.3501" y1="570.929" x2="139.129" y2="479.776" stroke="white"/>
<line x1="-56.3501" y1="802.318" x2="139.129" y2="711.164" stroke="white"/>
<line x1="-56.3501" y1="471.763" x2="139.129" y2="380.609" stroke="white"/>
<line x1="-56.3501" y1="703.151" x2="139.129" y2="611.998" stroke="white"/>
<line x1="-56.3501" y1="587.457" x2="139.129" y2="496.303" stroke="white"/>
<line x1="-56.3501" y1="818.846" x2="139.129" y2="727.692" stroke="white"/>
<line x1="-56.3501" y1="488.29" x2="139.129" y2="397.137" stroke="white"/>
<line x1="-56.3501" y1="719.679" x2="139.129" y2="628.526" stroke="white"/>
<line x1="-56.3501" y1="603.985" x2="139.129" y2="512.831" stroke="white"/>
</g>
<path d="M4 345H123V343H4V345ZM123 728H4V730H123V728Z" fill="white" mask="url(#path-55-inside-2_1_5320)"/>
</g>
<g opacity="0.1">
<g opacity="0.23" filter="url(#filter0_f_1_5320)">
<path d="M290.867 717.21C245.534 657.539 75.4828 793.814 75.4828 793.814C64.8818 813.516 52.7137 855.084 88.8499 863.742C240.474 900.072 211.435 1043.77 373.125 959.657C373.125 959.657 574.487 791.976 484.176 765.956C427.795 749.711 386.46 830.967 337.519 798.601C306.96 778.392 336.201 776.88 290.867 717.21Z" fill="#92F879" fill-opacity="0.37"/>
</g>
<g opacity="0.23" filter="url(#filter1_f_1_5320)">
<path d="M1120.49 617.033C1118.64 701.226 1363.53 700.248 1363.53 700.248C1386.63 690.329 1426.4 662.269 1400.67 629.384C1292.68 491.403 1418.7 385.299 1217.65 346.231C1217.65 346.231 923.261 352.943 984.514 438.982C1022.76 492.697 1115.94 450.117 1136.36 512.812C1149.11 551.957 1122.33 532.841 1120.49 617.033Z" fill="#D7F879" fill-opacity="0.8"/>
</g>
</g>
<defs>
<filter id="filter0_f_1_5320" x="-92.663" y="544.796" width="757.438" height="598.165" filterUnits="userSpaceOnUse" color-interpolation-filters="sRGB">
<feFlood flood-opacity="0" result="BackgroundImageFix"/>
<feBlend mode="normal" in="SourceGraphic" in2="BackgroundImageFix" result="shape"/>
<feGaussianBlur stdDeviation="78.65" result="effect1_foregroundBlur_1_5320"/>
</filter>
<filter id="filter1_f_1_5320" x="818.829" y="188.931" width="747.499" height="668.618" filterUnits="userSpaceOnUse" color-interpolation-filters="sRGB">
<feFlood flood-opacity="0" result="BackgroundImageFix"/>
<feBlend mode="normal" in="SourceGraphic" in2="BackgroundImageFix" result="shape"/>
<feGaussianBlur stdDeviation="78.65" result="effect1_foregroundBlur_1_5320"/>
</filter>
<clipPath id="clip0_1_5320">
<path d="M1398 344H1517V729H1398V344Z" fill="white"/>
</clipPath>
<clipPath id="clip1_1_5320">
<path d="M4 344H123V729H4V344Z" fill="white"/>
</clipPath>
</defs>
</svg>
